<?xml version="1.0" encoding="utf-8"?>
<!-- Generator: Adobe Illustrator 22.1.0, SVG Export Plug-In . SVG Version: 6.00 Build 0)  -->
<svg version="1.1" id="Layer_1" xmlns="http://www.w3.org/2000/svg" xmlns:xlink="http://www.w3.org/1999/xlink" x="0px" y="0px"
	 viewBox="0 0 80 40" style="enable-background:new 0 0 80 40;" xml:space="preserve">
<style type="text/css">
	.st0{fill:none;}
	.st1{fill:#FFFFFF;stroke:#FFFFFF;stroke-miterlimit:10;}
	.st2{font-family:'Quicksand-Regular';}
	.st3{font-size:32px;}
	.st4{font-size:37px;}
	.st5{fill:none;stroke:#FFFFFF;stroke-width:2;stroke-miterlimit:10;}
	.st6{fill:#FFFFFF;stroke:#FFFFFF;stroke-width:2;stroke-miterlimit:10;}
</style>
<rect x="19.9" y="5" class="st0" width="39.8" height="30"/>
<text transform="matrix(1 0 0 1 22.3621 28.6797)" class="st1 st2 st3">nc</text>
<rect x="56.2" y="5" class="st0" width="26.8" height="30"/>
<text transform="matrix(1 0 0 1 58.5762 29.3799)" class="st1 st2 st4">o</text>
<rect x="-3" y="5" class="st0" width="26.8" height="30"/>
<text transform="matrix(1 0 0 1 -0.5905 29.3799)" class="st1 st2 st4">o</text>
<path class="st5" d="M3.6,15.7c0-7,19.1-14.5,37.3-14.5"/>
<path class="st6" d="M66.1,5c0-1.8-13.5-3.8-26.3-3.8"/>
<path class="st5" d="M77.5,23c0,7-19.1,14.5-37.3,14.5"/>
<path class="st6" d="M15,33.7c0,1.8,13.5,3.8,26.3,3.8"/>
<circle class="st6" cx="66.1" cy="4.7" r="0.7"/>
<circle class="st6" cx="14.5" cy="33.7" r="0.7"/>
</svg>
